<svg width="49" height="48" viewBox="0 0 49 48" fill="none" xmlns="http://www.w3.org/2000/svg">
    <path fill-rule="evenodd" clip-rule="evenodd" d="M23.362 11.252a2 2 0 0 1 1.943 0l14 7.777a2 2 0 0 1 1.028 1.749V39a2 2 0 1 0 4 0V20.778a6 6 0 0 0-3.086-5.245l-14-7.778a6 6 0 0 0-5.828 0l-14 7.778a6 6 0 0 0-3.086 5.245V39a2 2 0 1 0 4 0V20.778a2 2 0 0 1 1.03-1.748l14-7.778zM16.333 25v4h6v-4h-6zm-4-2v16a2 2 0 0 0 2 2h20a2 2 0 0 0 2-2v-8a2 2 0 0 0-2-2h-8v-6a2 2 0 0 0-2-2h-10a2 2 0 0 0-2 2zm4 14v-4h6v4h-6zm10 0h6v-4h-6v4z" fill="#fff"/>
</svg>
